<?xml version="1.0" encoding="UTF-8" standalone="no"?><!DOCTYPE svg PUBLIC "-//W3C//DTD SVG 1.1//EN" "http://www.w3.org/Graphics/SVG/1.1/DTD/svg11.dtd"><svg width="100%" height="100%" viewBox="0 0 2891 959" version="1.1" xmlns="http://www.w3.org/2000/svg" xmlns:xlink="http://www.w3.org/1999/xlink" xml:space="preserve" xmlns:serif="http://www.serif.com/" style="fill-rule:evenodd;clip-rule:evenodd;stroke-linejoin:round;stroke-miterlimit:2;"><g transform="matrix(1,0,0,1,-26591.5,-3557.24)"><g transform="matrix(2,0,0,2,26103.9,2804.13)"><g transform="matrix(1,0,0,1,243.815,489.408)"><path d="M0,254.236L216.436,-0.005L2.05,-0.005L2.05,-112.085L371.791,-112.085L372.474,-0.005L153.988,254.236L374.526,254.236L374.526,366.321L0,366.321L0,254.236Z" style="fill:#006400;fill-rule:nonzero;"/></g></g><g transform="matrix(2,0,0,2,26103.9,2804.13)"><g transform="matrix(1,0,0,1,0,-13.228)"><rect x="684.206" y="390.551" width="129.17" height="478.406" style="fill:#006400;"/></g></g><g transform="matrix(2,0,0,2,26103.9,2804.13)"><g transform="matrix(1,0,0,1,878.718,855.729)"><path d="M0,-478.406L323.268,-478.406L323.268,-366.325L129.17,-366.325L129.17,-286.363L290.463,-286.363L290.463,-182.478L129.17,-182.478L129.17,0L0,0L0,-478.406Z" style="fill:#006400;fill-rule:nonzero;"/></g></g><g transform="matrix(2,0,0,2,26103.9,2804.13)"><g transform="matrix(1,0,0,1,1529.89,449.086)"><path d="M0,334.881L23.238,406.644L159.241,406.644L-8.202,-71.763L-262.038,-71.763L-262.038,41.159L-215.85,41.159L-343.771,406.644L-207.766,406.644L-184.528,334.881L-154.458,239.883L-95.683,58.088L-88.848,58.088L-30.072,239.883L-84.965,239.883L-115.65,335.258L0,334.881Z" style="fill:#006400;fill-rule:nonzero;"/></g></g><g transform="matrix(2,0,0,2,26103.9,2804.13)"><g transform="matrix(1,0,0,1,1617.69,419.027)"><path d="M0,-6.363L4.292,-6.363C8.584,-6.363 11.544,-7.991 11.544,-11.987C11.544,-15.687 9.028,-17.315 4.144,-17.315L0,-17.315L0,-6.363ZM12.284,-0.443L23.235,16.724L12.136,16.724L3.404,1.332L0,1.332L0,16.724L-9.62,16.724L-9.62,-24.566L2.368,-24.566C15.096,-24.566 21.311,-20.423 21.311,-11.839C21.311,-6.067 17.464,-2.368 12.284,-0.443M34.187,-2.959C34.187,-21.163 22.199,-33.742 4.884,-33.742C-11.987,-33.742 -24.271,-21.163 -24.271,-2.959C-24.271,15.096 -11.987,27.379 4.884,27.379C22.199,27.379 34.187,15.096 34.187,-2.959M44.25,-2.959C44.25,19.387 27.379,36.111 4.884,36.111C-17.167,36.111 -34.335,19.387 -34.335,-2.959C-34.335,-25.306 -17.167,-42.474 4.884,-42.474C27.379,-42.474 44.25,-25.306 44.25,-2.959" style="fill:#006400;fill-rule:nonzero;"/></g></g></g></svg>